<svg width="18" height="18" viewBox="0 0 18 18" fill="none" xmlns="http://www.w3.org/2000/svg">
<path fill-rule="evenodd" clip-rule="evenodd" d="M2.84076 5.90092C2.84076 4.21079 4.21089 2.84066 5.90102 2.84066H12.099C13.7891 2.84066 15.1593 4.21079 15.1593 5.90092V12.0989C15.1593 13.789 13.7891 15.1592 12.099 15.1592H5.90102C4.21089 15.1592 2.84076 13.789 2.84076 12.0989V5.90092ZM5.90102 3.79619C4.73861 3.79619 3.79629 4.73851 3.79629 5.90092V12.0989C3.79629 13.2613 4.73861 14.2037 5.90102 14.2037H12.099C13.2614 14.2037 14.2038 13.2613 14.2038 12.0989V5.90092C14.2038 4.73851 13.2614 3.79619 12.099 3.79619H5.90102Z" fill="black"/>
<path fill-rule="evenodd" clip-rule="evenodd" d="M7.79053 0.477762C7.79053 0.213901 8.00443 0 8.26829 0H9.73171C9.99557 0 10.2095 0.213901 10.2095 0.477762C10.2095 0.741622 9.99557 0.955524 9.73171 0.955524H8.26829C8.00443 0.955524 7.79053 0.741622 7.79053 0.477762ZM2.47309 1.04032C2.63387 1.24954 2.5946 1.54948 2.38538 1.71026C2.13206 1.90493 1.90493 2.13206 1.71026 2.38538C1.54948 2.5946 1.24954 2.63387 1.04032 2.47309C0.831101 2.31231 0.791831 2.01237 0.952608 1.80315C1.19788 1.48398 1.48398 1.19788 1.80315 0.952607C2.01237 0.79183 2.31231 0.831101 2.47309 1.04032ZM15.5269 1.04032C15.6877 0.831101 15.9876 0.791831 16.1968 0.952608C16.516 1.19788 16.8021 1.48398 17.0474 1.80315C17.2082 2.01237 17.1689 2.31231 16.9597 2.47309C16.7505 2.63387 16.4505 2.5946 16.2897 2.38538C16.0951 2.13206 15.8679 1.90493 15.6146 1.71026C15.4054 1.54948 15.3661 1.24954 15.5269 1.04032ZM17.5222 7.79053C17.7861 7.79053 18 8.00443 18 8.26829V9.73171C18 9.99557 17.7861 10.2095 17.5222 10.2095C17.2584 10.2095 17.0445 9.99557 17.0445 9.73171V8.26829C17.0445 8.00443 17.2584 7.79053 17.5222 7.79053ZM0.477762 7.79053C0.741622 7.79053 0.955524 8.00443 0.955524 8.26829V9.73171C0.955524 9.99557 0.741622 10.2095 0.477762 10.2095C0.213901 10.2095 0 9.99557 0 9.73171V8.26829C0 8.00443 0.213901 7.79053 0.477762 7.79053ZM1.04032 15.5269C1.24954 15.3661 1.54948 15.4054 1.71026 15.6146C1.90493 15.8679 2.13206 16.0951 2.38538 16.2897C2.5946 16.4505 2.63387 16.7505 2.47309 16.9597C2.31231 17.1689 2.01237 17.2082 1.80315 17.0474C1.48398 16.8021 1.19788 16.516 0.952607 16.1968C0.79183 15.9876 0.831101 15.6877 1.04032 15.5269ZM16.9597 15.5269C17.1689 15.6877 17.2082 15.9876 17.0474 16.1968C16.8021 16.516 16.516 16.8021 16.1968 17.0474C15.9876 17.2082 15.6877 17.1689 15.5269 16.9597C15.3661 16.7505 15.4054 16.4505 15.6146 16.2897C15.8679 16.0951 16.0951 15.8679 16.2897 15.6146C16.4505 15.4054 16.7505 15.3661 16.9597 15.5269ZM7.79053 17.5222C7.79053 17.2584 8.00443 17.0445 8.26829 17.0445H9.73171C9.99557 17.0445 10.2095 17.2584 10.2095 17.5222C10.2095 17.7861 9.99557 18 9.73171 18H8.26829C8.00443 18 7.79053 17.7861 7.79053 17.5222Z" fill="black"/>
<path fill-rule="evenodd" clip-rule="evenodd" d="M6.08602 8.14557C6.26303 7.96856 6.54665 7.9582 6.73611 8.12181L13.3152 13.8033C13.5149 13.9758 13.537 14.2775 13.3645 14.4772C13.192 14.6769 12.8903 14.6989 12.6906 14.5265L6.44768 9.13523L3.78549 11.7974C3.59892 11.984 3.29641 11.984 3.10984 11.7974C2.92326 11.6108 2.92326 11.3083 3.10984 11.1217L6.08602 8.14557Z" fill="black"/>
<path fill-rule="evenodd" clip-rule="evenodd" d="M10.2543 8.13089C10.434 7.96648 10.7087 7.96359 10.8918 8.12419L14.8675 11.6106C15.0659 11.7845 15.0857 12.0864 14.9117 12.2848C14.7377 12.4832 14.4359 12.5029 14.2375 12.329L10.5836 9.12475L9.06436 10.5145C8.86968 10.6926 8.56747 10.6792 8.38937 10.4845C8.21127 10.2898 8.22471 9.98761 8.4194 9.80951L10.2543 8.13089Z" fill="black"/>
<path fill-rule="evenodd" clip-rule="evenodd" d="M8.35443 6.97281C7.97647 6.97281 7.67007 6.66641 7.67007 6.28845C7.67007 5.91049 7.97647 5.60409 8.35443 5.60409C8.73239 5.60409 9.03879 5.91049 9.03879 6.28845C9.03879 6.66641 8.73239 6.97281 8.35443 6.97281ZM6.71454 6.28845C6.71454 7.19413 7.44875 7.92833 8.35443 7.92833C9.26011 7.92833 9.99432 7.19413 9.99432 6.28845C9.99432 5.38276 9.26011 4.64856 8.35443 4.64856C7.44875 4.64856 6.71454 5.38276 6.71454 6.28845Z" fill="black"/>
<path d="M17.5222 11.5835C17.7861 11.5835 18 11.7974 18 12.0613V12.793C18 12.9966 17.9868 13.1974 17.9611 13.3944C17.9269 13.6561 17.6872 13.8405 17.4255 13.8064C17.1639 13.7723 16.9794 13.5325 17.0136 13.2708C17.0339 13.1147 17.0445 12.9552 17.0445 12.793V12.0613C17.0445 11.7974 17.2584 11.5835 17.5222 11.5835Z" fill="black"/>
<path d="M0.477762 11.5835C0.741622 11.5835 0.955524 11.7974 0.955524 12.0613V12.793C0.955524 12.9552 0.966061 13.1147 0.986435 13.2708C1.02056 13.5325 0.836127 13.7723 0.574483 13.8064C0.312839 13.8405 0.0730674 13.6561 0.0389382 13.3944C0.0132326 13.1974 0 12.9966 0 12.793V12.0613C0 11.7974 0.213901 11.5835 0.477762 11.5835Z" fill="black"/>
<path d="M0.574483 3.89591C0.836127 3.93004 1.02056 4.16981 0.986435 4.43146C0.966061 4.58765 0.955524 4.74714 0.955524 4.90934V5.64105C0.955524 5.90491 0.741622 6.11881 0.477762 6.11881C0.213901 6.11881 0 5.90491 0 5.64105V4.90934C0 4.70571 0.0132326 4.50493 0.0389382 4.30786C0.0730675 4.04622 0.312839 3.86178 0.574483 3.89591Z" fill="black"/>
<path d="M17.4255 3.89591C17.6872 3.86178 17.9269 4.04622 17.9611 4.30787C17.9868 4.50493 18 4.70571 18 4.90934V5.64105C18 5.90491 17.7861 6.11881 17.5222 6.11881C17.2584 6.11881 17.0445 5.90491 17.0445 5.64105V4.90934C17.0445 4.74714 17.0339 4.58765 17.0136 4.43146C16.9794 4.16981 17.1639 3.93004 17.4255 3.89591Z" fill="black"/>
<path d="M14.0037 17.426C14.0378 17.6877 13.8533 17.9274 13.5917 17.9616C13.3946 17.9873 13.1939 18.0005 12.9902 18.0005H12.2585C11.9947 18.0005 11.7808 17.7866 11.7808 17.5227C11.7808 17.2589 11.9947 17.045 12.2585 17.045H12.9902C13.1524 17.045 13.3119 17.0345 13.4681 17.0141C13.7298 16.9799 13.9695 17.1644 14.0037 17.426Z" fill="black"/>
<path d="M11.7808 0.477762C11.7808 0.213901 11.9947 0 12.2585 0H12.9902C13.1939 0 13.3946 0.0132326 13.5917 0.0389382C13.8533 0.0730675 14.0378 0.312839 14.0037 0.574483C13.9695 0.836127 13.7298 1.02056 13.4681 0.986435C13.3119 0.966061 13.1524 0.955524 12.9902 0.955524H12.2585C11.9947 0.955524 11.7808 0.741622 11.7808 0.477762Z" fill="black"/>
<path d="M3.93302 17.426C3.96715 17.1644 4.20692 16.9799 4.46857 17.0141C4.62476 17.0345 4.78425 17.045 4.94645 17.045H5.67816C5.94202 17.045 6.15592 17.2589 6.15592 17.5227C6.15592 17.7866 5.94202 18.0005 5.67816 18.0005H4.94645C4.74282 18.0005 4.54204 17.9873 4.34497 17.9616C4.08333 17.9274 3.89889 17.6877 3.93302 17.426Z" fill="black"/>
<path d="M4.94645 0.955524C4.78425 0.955524 4.62476 0.966061 4.46857 0.986435C4.20692 1.02056 3.96715 0.836127 3.93302 0.574483C3.89889 0.312839 4.08333 0.0730674 4.34497 0.0389382C4.54204 0.0132326 4.74282 0 4.94645 0H5.67815C5.94202 0 6.15592 0.213901 6.15592 0.477762C6.15592 0.741622 5.94202 0.955524 5.67815 0.955524H4.94645Z" fill="black"/>
</svg>
